<?xml version="1.0" encoding="utf-8"?>
<!-- Generator: Adobe Illustrator 16.0.0, SVG Export Plug-In . SVG Version: 6.00 Build 0)  -->
<!DOCTYPE svg PUBLIC "-//W3C//DTD SVG 1.1//EN" "http://www.w3.org/Graphics/SVG/1.1/DTD/svg11.dtd">
<svg version="1.1" xmlns="http://www.w3.org/2000/svg" xmlns:xlink="http://www.w3.org/1999/xlink" x="0px" y="0px" width="500px"
	 height="500px" viewBox="0 0 500 500" enable-background="new 0 0 500 500" xml:space="preserve">
<g id="BACKGROUND">
	<g>
		<g>
			<path fill="#B1E9F9" d="M419.119,191.381c8.913-18.954,3.886-44.211-12.021-57.525c-10.837-9.072-25.643-12.935-34.399-24.17
				c-8.034-10.307-9.196-24.563-14.824-36.465c-7.766-16.427-24.724-27.72-42.345-28.2c-16.589-0.452-32.085,7.804-48.144,12.146
				c-41.761,11.289-104.662-4.206-122.218,49.931c-4.153,12.808-6.551,26.506-13.648,37.834
				c-8.068,12.88-21.229,21.161-33.766,29.328c-12.537,8.167-25.406,17.232-32.242,30.86c-6.835,13.628-5.198,33.078,7.368,41.194
				c11.535,7.45,28.678,3.71,37.693,14.26c8.784,10.276,3.58,26.187,4.426,39.897c0.996,16.168,11.55,30.731,25.245,38.499
				s30.077,9.329,45.512,6.93c23.979-3.728,47.079-16.524,71.146-13.462c28.589,3.64,51.5,28.95,80.165,31.877
				c18.318,1.87,37.313-6.46,48.793-21.396s15.084-36.015,9.259-54.141c-4.612-14.354-14.778-27.593-13.47-42.663
				c1.856-21.396,24.909-32.984,35.676-51.33C417.976,193.677,418.573,192.541,419.119,191.381z"/>
		</g>
		<g>
			<g>
				<path fill="#B1E9F9" d="M404.739,233.317c-2.871,0.731-5.505,2.64-7.235,5.958c-1.758,3.37-1.705,7.424-0.157,10.879
					c2.502,5.586,9.894,9.525,15.971,7.169c5.86-2.272,8.053-9.232,6.549-14.89C418.034,235.543,410.85,231.762,404.739,233.317z"/>
			</g>
			<g>
				<path fill="#B1E9F9" d="M429.661,211.887c-3.372,0.584-6.374,3.168-6.15,7.548c0.199,3.898,3.921,7.263,7.82,7.079
					c3.898-0.185,7.283-3.877,7.139-7.777C438.271,213.355,433.7,211.188,429.661,211.887z"/>
			</g>
		</g>
		<g>
			<g>
				<path fill="#B1E9F9" d="M84.5,133.668c-2.85-0.811-6.086-0.483-9.249,1.517c-3.213,2.031-5.204,5.563-5.602,9.327
					c-0.644,6.087,3.77,13.207,10.207,14.223c6.209,0.979,11.602-3.937,13.143-9.584C94.877,142.272,90.564,135.393,84.5,133.668z"
					/>
			</g>
			<g>
				<path fill="#B1E9F9" d="M118.234,128c-1.903-0.542-4.065-0.323-6.178,1.013c-2.146,1.356-3.476,3.715-3.741,6.229
					c-0.43,4.065,2.518,8.82,6.817,9.499c4.146,0.654,7.748-2.629,8.778-6.401C125.165,133.746,122.285,129.151,118.234,128z"/>
			</g>
			<g>
				<path fill="#B1E9F9" d="M95.114,103.604c-2.319-0.859-5.133-0.335-6.584,2.483c-1.291,2.508-0.187,5.962,2.317,7.263
					c2.503,1.3,5.958,0.222,7.285-2.268C99.962,107.647,97.893,104.634,95.114,103.604z"/>
			</g>
		</g>
	</g>
</g>
<g id="OBJECTS">
	<g>
		<ellipse fill="#F2F2F2" cx="250" cy="444.398" rx="71.816" ry="10.6"/>
		<g>
			<g>
				<path fill="#002039" d="M269.26,113.928c-0.938-2.185-3.47-8.04-5.365-8.667l-5.677,1.755c-5.879,1.209-6.754,8.02-6.462,13.125
					c0.288,5.048,3.766,13.598,9.99,12.895c4.622-0.522,8.52-4.651,9.295-9.162C271.633,120.436,270.605,117.065,269.26,113.928z"/>
			</g>
			<g>
				<path fill="#002039" d="M262.208,131.632c-0.031-3.726-0.439-7.434-1.364-11.042c-1.841-7.182-5.868-13.962-11.946-18.207
					c-9.561-6.677-25.655-5.236-32.475,5.021c-2.576,3.874-3.583,8.76-2.749,13.337c1.403,7.701,7.713,14.475,6.698,22.237
					c-0.438,3.354-2.229,6.366-4.1,9.185c-1.872,2.818-3.896,5.613-4.908,8.841c-1.012,3.229-0.829,7.061,1.396,9.61
					c2.024,2.319,5.521,3.404,6.609,6.284c0.993,2.625-0.502,5.479-1.977,7.868c-3.84,6.216-7.892,12.3-12.148,18.239
					c9.524-3.341,18.189-9.097,24.962-16.581c0.63,2.252,1.26,4.505,1.89,6.758c5.146-2.844,9.264-7.246,12.81-11.936
					c8.51-11.26,14.201-24.635,16.413-38.575C261.897,139.027,262.238,135.321,262.208,131.632z"/>
			</g>
			<path fill="#002039" d="M222.194,443.702l0.521,0.005c1.543,0.014,3.029,0.686,4.045,1.86c2.319,2.669,8.464,2.648,11.873,1.886
				c0.184-0.034,0.351-0.086,0.536-0.137c1.447-0.411,1.807-2.31,0.599-3.219l-12.011-9.696c-0.012-0.055,0.013-0.268,0.068-0.603
				l-7.021,0.155c-0.236,0.817-0.407,1.373-0.407,1.373C219.489,439.209,218.21,443.68,222.194,443.702z"/>
			<path fill="#002039" d="M265.41,443.702l0.521,0.005c1.543,0.014,3.029,0.686,4.045,1.86c2.319,2.669,8.464,2.648,11.873,1.886
				c0.184-0.034,0.352-0.086,0.536-0.137c1.448-0.411,1.807-2.31,0.599-3.219l-12.01-9.696c-0.012-0.055,0.012-0.268,0.067-0.603
				l-7.021,0.155c-0.237,0.817-0.408,1.373-0.408,1.373C262.705,439.209,261.426,443.68,265.41,443.702z"/>
			<path opacity="0.8" fill="#FFFFFF" d="M325.373,84.364c-0.449,0.449-1.166,0.449-1.614,0l-0.469-0.468l-11.885,11.895
				c2.255,2.455,3.688,5.656,3.879,9.2c0.02,0.277,0.028,0.554,0.028,0.831c0,8.216-6.659,14.885-14.885,14.885
				c-7.575,0-13.824-5.656-14.77-12.964c-0.086-0.63-0.124-1.271-0.124-1.92c0-8.226,6.668-14.894,14.894-14.894
				c2.379,0,4.624,0.573,6.611,1.566l12.42-12.419l-0.458-0.468c-0.449-0.449-0.449-1.175,0-1.615c0.448-0.449,1.165-0.449,1.614,0
				l4.758,4.758C325.822,83.189,325.822,83.915,325.373,84.364z"/>
			<path fill="#FFAC92" d="M260.904,151.689c-1.013,12.019-6.516,11.588-16.413-1.032c0.478-0.554,0.803-1.261,1.051-2.178
				c0.048-0.144,0.086-0.296,0.114-0.449c0-0.029,0-0.029,0-0.029c0.086-0.563,0.125-1.108,0.153-1.605
				c0.038-0.831-0.124-3.172-0.363-5.637c-0.315-3.162-0.783-6.544-1.156-7.232l12.841,5.245l0.449,4.958
				c0.095,0.908,0.162,1.834,0.19,2.78c0.029,0.239,0.038,0.478,0.048,0.716c0.02,0.258,0.038,0.516,0.048,0.774
				c0.02,0.354,0.028,0.717,0.038,1.08c0.02,0.841,0.421,1.596,1.061,2.054c0.354,0.258,0.755,0.42,1.223,0.458L260.904,151.689z"/>
			<path fill="#E05731" d="M257.866,148.001l-1.44-0.84c-5.337-3.112-9.877-7.696-12.064-13.474
				c-0.024-0.063-0.048-0.117-0.071-0.16l12.841,5.245l0.449,4.958c0.095,0.908,0.162,1.834,0.19,2.78
				c0.029,0.239,0.038,0.478,0.048,0.716C257.838,147.486,257.856,147.744,257.866,148.001z"/>
			<path fill="#004D6C" d="M218.466,403.553c0.85,12.294,1.699,25.245,2.039,31.704l7.218-0.601l15.195-90.421l6.231-52.689
				l2.572,0.306l4.408,51.341l7.875,91.646l7.048-0.283c1.145-8.17,3.399-26.832,5.212-42.072
				c0.816-6.811,1.224-13.665,1.224-20.509c0-8.396-0.611-16.793-1.824-25.121c-0.544-3.683-0.566-7.434-0.057-11.116l5.836-63.396
				c0.102-0.815,0.17-1.643,0.204-2.504h-63.521c0,0.838,0.033,1.677,0.091,2.504c0.011,0.125,0.011,0.238,0.022,0.362l4.328,66.377
				c0.306,4.079,0.091,8.192-0.714,12.215C218.409,368.461,217.253,386.047,218.466,403.553z"/>
			<g>
				<g>
					<g>
						<path fill="#FFAC92" d="M237.325,132.942c-1.503-2.499-1.935-6.304,0.251-7.235c0.652-0.278,1.497-0.279,2.391-0.081
							c-0.834-8.235,2.058-18.663,7.52-20.989c7.146-3.044,14.704-1.507,22.063,17.174c2.91,7.392,0.401,17.008-6.404,20.639
							c-5.115,2.728-13.358-1.035-18.354-6.214C242.169,136.339,239.23,136.112,237.325,132.942z"/>
						<path fill="#002039" d="M268.182,119.825v-3.557c0-0.264-0.214-0.478-0.478-0.478s-0.478,0.213-0.478,0.478v1.94
							c-0.039-0.041-0.069-0.089-0.109-0.128c-0.782-0.761-1.782-1.142-2.83-1.078c-2.13,0.137-3.742,2.143-3.593,4.47c0,0,0,0,0,0
							c0.024,0.38,0.109,0.737,0.218,1.082c-0.232-0.056-0.474-0.083-0.723-0.075c-0.787,0.02-1.452,0.308-1.948,0.774
							c-0.175-0.877-0.585-1.675-1.211-2.284c-0.783-0.762-1.781-1.143-2.829-1.078c-1.042,0.067-1.988,0.575-2.668,1.43
							c-0.668,0.842-0.996,1.921-0.924,3.04c0.013,0.201,0.053,0.396,0.09,0.59l-12.583,0.602l0.045,0.94l12.815-0.613
							c0.223,0.517,0.536,0.987,0.938,1.378c0.725,0.705,1.64,1.085,2.597,1.085c0.077,0,0.154-0.002,0.233-0.008
							c1.48-0.095,2.694-1.102,3.257-2.483c0.031-0.043,0.049-0.092,0.061-0.145c0.13-0.355,0.218-0.73,0.254-1.125
							c0.35-0.701,1.06-1.153,1.898-1.174c0.448-0.021,0.946,0.124,1.346,0.432c0.725,0.981,1.824,1.612,3.04,1.612
							c0.077,0,0.153-0.002,0.229-0.007c2.13-0.137,3.742-2.143,3.594-4.47C268.396,120.576,268.304,120.194,268.182,119.825z
							 M254.683,127.385c-0.767,0.047-1.515-0.238-2.103-0.809c-0.6-0.584-0.961-1.391-1.018-2.273l0,0
							c-0.057-0.882,0.198-1.729,0.719-2.384c0.509-0.642,1.213-1.022,1.981-1.071c0.056-0.004,0.112-0.005,0.169-0.005
							c0.708,0,1.389,0.286,1.933,0.815c0.601,0.583,0.962,1.391,1.019,2.272C257.498,125.732,256.287,127.282,254.683,127.385z
							 M264.768,124.494c-1.587,0.102-3.004-1.279-3.12-3.082c-0.115-1.802,1.097-3.353,2.701-3.456
							c0.764-0.054,1.516,0.238,2.103,0.809c0.6,0.583,0.961,1.391,1.018,2.273C267.585,122.84,266.372,124.391,264.768,124.494z"/>
						<g>
							<path fill="#002039" d="M266.071,106.347c-0.183-0.963-0.787-1.596-1.513-2.139c-3.192-2.408-7.023-3.625-10.885-3.604
								c-3.791,0.021-7.586,1.134-10.846,3.273c-3.292,2.161-6.019,5.458-7.152,9.537c-1.484,5.339-1.435,18.255,10.208,23.471
								c-0.271-1.484-0.224-3.132-0.16-4.648c0.136-3.217,0.603-6.587,1.661-9.597c0.661-1.879,1.467-3.708,2.688-5.218
								c0.682-0.842,1.424-1.62,2.161-2.405c0.746-0.794,1.495-1.586,2.247-2.378c0.347-0.365,1.208-1.502,1.711-1.464
								c-0.151,0.678-0.75,1.458-1.017,2.144c-0.323,0.835-1.266,2.475-1.156,3.37c0.008,0.059,12.917-3.677,12.081-10.168
								C266.092,106.461,266.082,106.404,266.071,106.347z"/>
						</g>
						<g>
							<g>
								<g>
									<path fill="#002039" d="M264.342,133.571c0.456-0.147,0.729-0.272,0.741-0.278c0.24-0.113,0.343-0.4,0.23-0.641
										c-0.115-0.239-0.381-0.356-0.643-0.23c-0.218,0.105-5.485,2.5-8.561-2.382c-0.142-0.225-0.435-0.296-0.666-0.151
										c-0.224,0.142-0.291,0.44-0.149,0.665C258.104,135.01,262.584,134.135,264.342,133.571z"/>
								</g>
							</g>
							
								<ellipse transform="matrix(-0.9665 0.2567 -0.2567 -0.9665 533.0216 178.9467)" fill="#002039" cx="254.833" cy="124.258" rx="1.413" ry="1.554"/>
							
								<ellipse transform="matrix(-0.9666 0.2563 -0.2563 -0.9666 550.7079 171.3491)" fill="#002039" cx="264.187" cy="121.566" rx="1.412" ry="1.554"/>
							<g>
								<g>
									<path fill="#002039" d="M249.381,122.662c0.179-0.038,0.328-0.177,0.37-0.367c0.666-2.989,3.365-2.571,3.48-2.553
										c0.263,0.044,0.509-0.132,0.556-0.395c0.044-0.262-0.133-0.511-0.396-0.555c-1.282-0.217-3.892,0.197-4.582,3.293
										c-0.058,0.26,0.106,0.518,0.367,0.575C249.245,122.677,249.314,122.676,249.381,122.662z"/>
								</g>
							</g>
							<g>
								<g>
									<path fill="#002039" d="M261.373,117.066c0.134,0.073,0.306,0.068,0.437-0.03c2.064-1.533,3.55,0.215,3.612,0.291
										c0.143,0.171,0.396,0.195,0.57,0.054c0.172-0.143,0.195-0.398,0.053-0.57c-0.695-0.841-2.58-2.012-4.719-0.424
										c-0.18,0.133-0.217,0.387-0.083,0.566C261.278,117.001,261.323,117.039,261.373,117.066z"/>
								</g>
							</g>
						</g>
					</g>
				</g>
				<g>
					<path fill="#002039" d="M262.697,129.577c-0.24,0.044-0.47-0.114-0.515-0.354c-0.044-0.241,0.113-0.472,0.354-0.518
						c0.008-0.002,0.836-0.174,0.967-0.662c0.062-0.225,0.04-0.885-1.444-2.174c-0.185-0.16-0.203-0.44-0.043-0.625
						c0.16-0.184,0.439-0.203,0.626-0.044c1.39,1.208,1.953,2.214,1.718,3.078c-0.282,1.033-1.604,1.289-1.66,1.299L262.697,129.577
						z"/>
				</g>
			</g>
			<path fill="#E05731" d="M281.646,269.84h-63.522c-0.01-19.404,13.786-40.708,13.786-40.708l0.229-0.363
				c0.573-0.869,1.051-1.777,1.404-2.742c0.698-1.825,1.022-3.773,0.937-5.742c-0.038-0.745-0.134-1.471-0.277-2.217
				c-1.7-8.273-4.719-22.68-5.607-24.868c-0.603-1.49-1.08-3-1.404-4.519l-0.029-0.124c-0.554-2.627-0.659-5.302-0.229-8.063
				c0.535-3.296,1.519-6.506,2.12-9.802c0.755-4.08-0.038-12.678-0.038-12.678s12.038-5.55,14.885-7.022
				c0.354-0.172,0.563-0.296,0.593-0.334c9.897,12.62,15.4,13.05,16.413,1.032l0.984,0.134l0.764,0.038l4.481,0.163
				c0.84,0.038,1.672,0.076,2.513,0.105c4.662,0.258,3.602,7.949,4.021,10.968c1.146,8.359,4.844,16.49,3.334,25.04
				c-1.146,6.449-8.044,26.712-10.365,33.486c-0.248,0.669-0.43,1.204-0.555,1.576c-0.181,0.478-0.258,0.965-0.238,1.462
				c0.019,0.86,0.334,1.691,0.831,2.389c0.124,0.181,0.268,0.373,0.42,0.583C271.299,233.613,282.181,254.708,281.646,269.84z"/>
			<path fill="#FFFFFF" d="M253.987,216.215l-8.646,53.625l-14.895,92.451l-9.449-5.895c-2.56-1.596-4.776-3.621-6.554-5.942
				c-3.439-4.442-5.331-9.993-5.226-15.782c0.468-26.847,6.076-82.86,23.979-118.18l-6.009-27.811l-0.029-0.124
				c-0.554-2.627-0.659-5.302-0.229-8.063c0.535-3.296,1.519-6.506,2.12-9.802c0.182-1.003,0.277-2.312,0.307-3.717
				c0.095-4.251-0.363-9.343-0.363-9.343l14.903-6.64l4.968,13.328C255.038,180.876,256.796,198.761,253.987,216.215z"/>
			<path fill="#D2F3FB" d="M237.899,227.952c-6.191,14.101-15.793,46.957-23.455,122.268c-3.439-4.442-5.331-9.993-5.226-15.782
				c0.468-26.846,6.076-82.859,23.979-118.18l-6.009-27.811l-0.029-0.124c-0.554-2.627-0.659-5.302-0.229-8.063
				c0.535-3.296,1.519-6.506,2.12-9.802c0.182-1.003,0.277-2.312,0.307-3.716c3.019,10.557,7.146,24.677,10.289,35.377
				C242.16,210.669,241.472,219.793,237.899,227.952z"/>
			<g>
				<path fill="#FFAC92" d="M319.135,85.807c0,0,0.678-6.019-3.831-4.643c0,0-4.242,2.044-4.242,4.643c0,0-4.108,2.054-3.42,4.242
					l-2.313-0.382c-1.108-0.182-1.643,1.29-0.679,1.873c0.297,0.181,0.65,0.373,1.07,0.563c0,0,9.716,3.42,10.261,15.19
					l-0.086,0.516l7.337-1.347v-4.643C323.232,101.819,322.144,88.816,319.135,85.807z M313.688,86.361
					c3.048-4.93,3.258,0.544,3.258,0.544L313.688,86.361z"/>
				<path fill="#FFFFFF" d="M323.232,106.462v42.791c0,0.478-0.038,0.946-0.124,1.405c-0.487,2.895-2.474,5.369-5.283,6.43
					l-7.06,2.675l-36.782,13.958l-2.608-8.484l-4.06-13.203l42.103-5.063l4.271-38.75l2.207-0.411L323.232,106.462z"/>
				<polygon fill="#D2F3FB" points="310.766,159.762 273.983,173.72 271.375,165.236 				"/>
			</g>
			<path fill="#FFFFFF" d="M263.963,151.601c-0.143,0.604,4.552,15.867,7.621,25.93c1.837,6.018,2.063,12.408,0.658,18.542
				l-6.514,28.441l1.587,136.742l12.414-9.203c4.799-3.36,7.617-8.877,7.535-14.734c-0.328-23.346-2.552-83.965-16.521-111.819
				l8.827-28.967c1.944-6.38,1.696-13.228-0.703-19.451l-9.205-25.33L263.963,151.601z"/>
			<path fill="#B4E7FC" d="M244.29,223.944v0.009c-0.019-0.009-0.038-0.009-0.057-0.009H244.29z"/>
			<g>
				<path opacity="0.8" fill="#FFFFFF" d="M271.559,240.998l-9.204-16.916l2.633-15.99l0.648,0.107
					c0.623,0.103,1.212-0.319,1.314-0.943s-0.319-1.212-0.943-1.315l-6.64-1.093c-0.623-0.103-1.212,0.32-1.314,0.943
					s0.319,1.212,0.943,1.315l0.648,0.106l-2.67,16.214l-13.403,13.58c-1.557,1.578-0.654,4.256,1.54,4.57l23.693,3.385
					C271.004,245.275,272.62,242.948,271.559,240.998z"/>
				<path fill="#00D4C9" d="M259.352,211.353c0,0,0.478,0.9,2.03,0.422h0.001c1.135-0.699,2.564,0.264,2.343,1.578l-1.834,10.902
					l8.639,16.87c0.368,0.719,0.284,1.587-0.215,2.222l0,0c-0.454,0.577-1.18,0.87-1.907,0.77l-22.332-3.062
					c-0.728-0.1-1.348-0.578-1.629-1.256l-0.294-0.706c-0.318-0.767-0.147-1.649,0.434-2.242l12.974-13.233L259.352,211.353z"/>
				<circle fill="#50E1DA" cx="252.197" cy="236.769" r="2.303"/>
				<circle fill="#50E1DA" cx="266.534" cy="240.59" r="2.303"/>
				<circle fill="#50E1DA" cx="254.711" cy="230.021" r="1.064"/>
				<circle fill="#50E1DA" cx="259.378" cy="232.101" r="0.478"/>
				<circle fill="#50E1DA" cx="258.812" cy="224.911" r="0.477"/>
				<circle fill="#50E1DA" cx="247.052" cy="238.057" r="0.478"/>
				<circle fill="#50E1DA" cx="260.488" cy="214.104" r="0.478"/>
				<circle fill="#50E1DA" cx="266.056" cy="235.53" r="0.478"/>
				<circle fill="#50E1DA" cx="257.805" cy="239.072" r="1.015"/>
				<circle fill="#50E1DA" cx="261.137" cy="216.85" r="1.064"/>
				<circle fill="#50E1DA" cx="260.011" cy="228.076" r="1.064"/>
				<circle fill="#50E1DA" cx="262.499" cy="235.53" r="1.064"/>
				<circle fill="#50E1DA" cx="260.01" cy="220.564" r="1.424"/>
			</g>
			<g>
				<path fill="#FFFFFF" d="M244.29,223.954l-1.061,7.853l-0.439,3.258c0,0-37.564-1.892-41.902-8.961
					c-0.793-0.802-1.404-1.796-1.72-2.914c-6.248-21.83,29.827-65.558,29.827-65.558c3.563,1.911,5.063,8.302,5.665,13.958
					c0.163,1.509,0.258,2.961,0.315,4.271c0.152,3.468-0.841,6.878-2.847,9.716c-6.898,9.783-17.073,26.493-19.327,30.209
					c-0.01,0.029-0.02,0.038-0.02,0.038c-0.277,0.468-0.43,0.717-0.43,0.717c0.306,0.258,0.764,0.516,1.347,0.803
					c0,0,0.01,0,0.038,0.019c0,0,0.01,0,0.02,0c0.439,0.162,3.688,1.309,8.121,2.618c7.308,1.853,16.871,3.544,22.355,3.965
					C244.252,223.944,244.271,223.944,244.29,223.954z"/>
				<path fill="#D2F3FB" d="M232.129,185.576c-6.898,9.783-17.073,26.493-19.327,30.209c0.582-1.194,15.668-32.043,21.858-44.195
					c0.163,1.509,0.258,2.961,0.315,4.271C235.128,179.328,234.135,182.739,232.129,185.576z"/>
				<g>
					<path fill="#FFAC92" d="M274.395,215.747c-0.297,0.258-1.166,0.22-2.188,0.038c-2.111-0.363-4.891-1.28-4.891-1.28
						l-1.042,0.459c1.834,2.828,1.653,5.407,1.356,6.764c-0.076,0.344-0.535,0.382-0.697,0.077c-0.105-0.21-0.21-0.411-0.324-0.592
						c-0.01-0.01-0.01-0.019-0.01-0.029c-0.325-0.544-0.631-0.946-0.631-0.946c0.01,0.029,0.01,0.038,0.01,0.067
						c0,0.01,0,0.01,0,0.01c0.172,1.003-0.038,2.245-0.249,3.162c-0.086,0.354-0.554,0.43-0.745,0.124
						c-0.2-0.334-0.448-0.659-0.649-0.917c0-0.01,0-0.019-0.01-0.019c-0.248-0.296-0.42-0.487-0.42-0.487
						c0.02,0.067,0.038,0.134,0.058,0.201c0,0.009,0,0.009,0,0.009c0.143,0.497,0.21,0.937,0.229,1.328
						c0.039,0.669-0.802,0.975-1.203,0.43c-2.073-2.838-4.07-2.943-5.149-2.713c-0.478,0.105-0.889,0.382-1.176,0.774l-5.521,7.299
						c-0.507,0.659-1.223,1.127-2.025,1.299c-1.987,0.42-3.955,0.755-5.886,1.003l1.061-7.853c1.156,0.077,2.121,0.105,2.848,0.067
						c0.735-0.038,1.414-0.42,1.834-1.022l6.144-8.885c0.554-0.802,1.48-1.261,2.455-1.204l4.299,0.248l5.446-1.805L274.395,215.747
						z"/>
					<path fill="#E05731" d="M263.904,222.177c0.02,0.067,0.038,0.134,0.058,0.201c-0.965-1.701-2.886-4.156-5.848-3.927
						c0,0,3.975-2.503,6.21,4.213C264.076,222.368,263.904,222.177,263.904,222.177z"/>
					<path fill="#E05731" d="M265.968,220.237c0.01,0.029,0.01,0.038,0.01,0.067c-1.003-1.682-2.876-3.908-5.704-3.688
						c0,0,4.118-2.589,6.325,4.566C266.273,220.639,265.968,220.237,265.968,220.237z"/>
					<path fill="#E05731" d="M272.206,215.785c-2.111-0.363-4.891-1.28-4.891-1.28l-1.042,0.459l-0.841-0.43l1.892-0.43
						C267.324,214.104,270.181,215.193,272.206,215.785z"/>
				</g>
			</g>
			<g opacity="0.78">
				<path fill="#805DD8" d="M314.653,105.179c0,7.851-6.362,14.223-14.223,14.223c-7.239,0-13.209-5.404-14.113-12.388
					c0.183-0.055,0.365-0.119,0.557-0.201c1.516-0.63,2.657-0.813,4.3-0.749c2.265,0.101,3.779,2.483,6.171,2.1
					c2.511-0.401,4.337-2.501,6.747-3.195c1.999-0.584,4.564,0.046,6.782-0.119c1.214-0.091,2.483-0.301,3.752-0.465
					C314.645,104.649,314.653,104.914,314.653,105.179z"/>
			</g>
			<g>
				<circle fill="#805DD8" cx="292.472" cy="113.047" r="2.03"/>
				<circle fill="#805DD8" cx="291.224" cy="109.222" r="1.247"/>
			</g>
			<g opacity="0.78">
				<circle fill="#805DD8" cx="298.436" cy="103.494" r="2.03"/>
				<circle fill="#805DD8" cx="301.323" cy="96.931" r="1.247"/>
				<circle fill="#805DD8" cx="303.319" cy="101.208" r="1.247"/>
			</g>
		</g>
	</g>
	<g>
		<path fill="#002039" d="M202.682,248.818H154.34c-0.794,0-1.437-0.643-1.437-1.436l0,0c0-0.793,0.643-1.436,1.437-1.436h48.342
			c0.793,0,1.437,0.643,1.437,1.436l0,0C204.118,248.175,203.475,248.818,202.682,248.818z"/>
		<polygon fill="#002039" points="162.887,247.382 161.082,247.382 150.14,274.26 151.944,274.26 		"/>
		<polygon fill="#002039" points="194.511,247.382 196.315,247.382 207.258,274.26 205.453,274.26 		"/>
	</g>
	<g>
		<g>
			<g>
				<g>
					<path fill="#E05731" d="M196.143,260.325c0.01,2.321-0.583,4.242-2.169,5.98c-1.538,1.701-4.041,2.732-6.372,2.331
						c-0.163-0.028-0.315-0.066-0.478-0.104c-0.535-0.134-1.032-0.421-1.443-0.793c-1.509,0.859-3.334,1.232-5.034,0.793
						c-0.172-0.048-0.335-0.105-0.497-0.172c-0.803,0.468-1.872,0.458-2.732,0.086c-0.066-0.029-0.124-0.067-0.191-0.105
						c-0.172,0.076-0.344,0.144-0.516,0.191c-1.738,0.449-3.592,0.048-5.13-0.841c-0.411,0.401-0.937,0.697-1.481,0.841
						c-0.162,0.038-0.315,0.076-0.478,0.104c-2.331,0.401-4.834-0.63-6.382-2.331c-1.586-1.738-2.169-3.659-2.169-5.98
						c0.01-1.566,0.124-3.076,0.315-4.614c0.124-1.003-0.105-2.541,0.258-3.43c1.815,2.637,3.717,4.767,6.086,6.821
						c0.038-1.137,0.124-2.255,0.268-3.392c0.124-1.003-0.105-2.541,0.248-3.43c1.72,2.483,3.507,4.519,5.685,6.468
						c0.325-0.803,0.784-1.558,1.366-2.313c0.965-1.241,1.978-2.359,3.076-3.458c0.707-0.727,1.472-2.073,2.293-2.561
						c-0.19,3.497,0.077,6.583,0.831,9.993c0.191-0.172,0.383-0.344,0.564-0.497c2.827-2.312,4.986-4.643,7.041-7.633
						c0.363,0.889,0.134,2.427,0.258,3.43c0.134,1.099,0.22,2.188,0.268,3.286c2.302-2.025,4.165-4.127,5.952-6.716
						c0.354,0.889,0.124,2.427,0.258,3.43C196.027,257.249,196.143,258.758,196.143,260.325z"/>
				</g>
				<g>
					<path fill="#E05731" d="M188.499,265.666c0,1.137-0.248,2.092-0.897,2.971c-0.163-0.028-0.315-0.066-0.478-0.104
						c-0.535-0.134-1.032-0.421-1.443-0.793c-1.509,0.859-3.334,1.232-5.034,0.793c-0.172-0.048-0.335-0.105-0.497-0.172
						c-0.803,0.468-1.872,0.458-2.732,0.086c-0.066-0.029-0.124-0.067-0.191-0.105c-0.172,0.076-0.344,0.144-0.516,0.191
						c-1.738,0.449-3.592,0.048-5.13-0.841c-0.411,0.401-0.937,0.697-1.481,0.841c-0.162,0.038-0.315,0.076-0.478,0.104
						c-0.659-0.879-0.897-1.834-0.897-2.971c0-0.889,0.066-1.739,0.172-2.599c0.076-0.573-0.058-1.434,0.143-1.939
						c1.032,1.49,2.103,2.694,3.43,3.85c0.029-0.64,0.077-1.271,0.153-1.91c0.076-0.573-0.058-1.434,0.144-1.939
						c0.975,1.404,1.978,2.551,3.21,3.649c0.182-0.449,0.439-0.879,0.764-1.309c0.545-0.697,1.118-1.328,1.739-1.949
						c0.401-0.401,0.831-1.166,1.29-1.442c-0.105,1.978,0.048,3.716,0.468,5.637c0.105-0.096,0.22-0.191,0.315-0.277
						c1.596-1.309,2.818-2.627,3.975-4.309c0.2,0.506,0.076,1.366,0.143,1.939c0.077,0.611,0.125,1.232,0.153,1.844
						c1.299-1.137,2.351-2.321,3.354-3.783c0.2,0.506,0.076,1.366,0.143,1.939C188.433,263.926,188.499,264.777,188.499,265.666z"/>
				</g>
			</g>
			<g>
				<path fill="#002039" d="M167.168,274.367h-4.348c-0.288,0-0.521-0.233-0.521-0.521v-6.854c0-0.288,0.233-0.521,0.521-0.521
					h11.593c0.472,0,0.701,0.576,0.358,0.9l-7.245,6.854C167.43,274.316,167.301,274.367,167.168,274.367z"/>
				<path fill="#002039" d="M191.949,274.367h4.348c0.288,0,0.521-0.233,0.521-0.521v-6.854c0-0.288-0.233-0.521-0.521-0.521
					h-11.592c-0.472,0-0.702,0.576-0.359,0.9l7.245,6.854C191.688,274.316,191.816,274.367,191.949,274.367z"/>
				<path fill="#002039" d="M179.524,274.93h-0.608c-0.455,0-0.824-0.368-0.824-0.823v-6.813c0-0.455,0.369-0.823,0.824-0.823h0.608
					c0.455,0,0.824,0.368,0.824,0.823v6.813C180.349,274.562,179.979,274.93,179.524,274.93z"/>
			</g>
		</g>
		<g>
			<g>
				<circle opacity="0.8" fill="#FFFFFF" cx="178.799" cy="225.417" r="31.072"/>
				<path opacity="0.8" fill="#FFFFFF" d="M207.812,225.416c0,16.012-12.993,28.995-29.016,28.995
					c-14.636,0-26.75-10.833-28.718-24.925c-0.201-1.328-0.297-2.685-0.297-4.07c0-16.012,12.993-28.996,29.015-28.996
					c13.634,0,25.069,9.401,28.175,22.069C207.524,220.706,207.812,223.027,207.812,225.416z"/>
				<g opacity="0.78">
					<path fill="#805DD8" d="M207.812,225.416c0,16.012-12.993,28.995-29.016,28.995c-14.636,0-26.75-10.833-28.718-24.925
						c1.137-1.404,2.98-2.36,4.643-2.245c1.586,0.105,3.201,1.061,4.777,1.404c1.682,0.373,3.248,0.631,4.978,0.631
						c4.547-0.01,6.955-2.838,10.309-5.503c3.812-3.028,7.002-3.372,11.312-1.309c4.241,2.035,9.019,2.923,12.782-0.487
						c2.494-2.254,5.227-3.468,8.093-3.487C207.524,220.706,207.812,223.027,207.812,225.416z"/>
				</g>
				<path opacity="0.8" fill="#FFFFFF" d="M183.363,167.979c1.729-0.975,2.369-2.427,2.551-3.736
					c0.315-2.331-0.851-4.604-2.856-5.856c1.213-0.754,2.226-1.729,2.933-2.78c1.442-2.188,1.424-4.548-0.048-6.162
					c-2.102-2.284-4.461-3.363-7.041-3.182c-3.889,0.268-7.137,3.411-8.741,5.293c-0.315-0.65-0.535-1.337-0.583-2.054
					c-0.048-0.688,0.058-1.366,0.324-2.035c0.325-0.86,0.918-1.719,1.777-2.579c1.003-1.003,2.273-1.825,3.765-2.446l5.646-2.341
					c1.443-0.602,2.398-1.949,2.484-3.516c0.086-1.538-0.688-2.943-2.016-3.688c-1.93-1.07-4.93-1.691-8.971-1.854h-22.013
					c-3.659,0-6.678,2.991-6.706,6.669c-0.028,2.856,0.124,6.678,0.439,11.35v0.029c-3.669,0.668-6.449,3.878-6.449,7.738
					c0,3.841,2.752,7.032,6.392,7.729l-0.028,6.449c-3.621,0.698-6.363,3.888-6.363,7.72c0,3.812,2.704,6.993,6.306,7.719
					l-0.028,6.468c-3.583,0.745-6.277,3.917-6.277,7.72c0,3.773,2.666,6.926,6.22,7.69l-0.191,48.428
					c-0.009,1.701,0.65,3.306,1.845,4.51c1.203,1.203,2.799,1.872,4.499,1.872h2.599c1.462,0,2.646,1.185,2.646,2.646v8.083h2.704
					v-8.083c0-2.952-2.398-5.359-5.351-5.359h-2.599c-0.975,0-1.892-0.383-2.579-1.07s-1.061-1.604-1.061-2.589l0.191-48.333
					c3.85-0.516,6.83-3.802,6.83-7.795c0-3.975-2.951-7.251-6.773-7.796l0.029-6.325c3.812-0.554,6.744-3.821,6.744-7.786
					c0-3.937-2.904-7.194-6.688-7.777l0.029-6.354c3.764-0.583,6.658-3.831,6.658-7.767c0-3.917-2.856-7.146-6.602-7.767v-0.134
					c-0.314-4.624-0.468-8.388-0.439-11.188c0.02-2.197,1.815-3.984,4.003-3.984h21.965c4.423,0.172,6.63,0.917,7.71,1.51
					c0.602,0.344,0.64,0.927,0.62,1.166c-0.009,0.2-0.104,0.869-0.821,1.166l-5.637,2.34c-1.824,0.755-3.392,1.777-4.652,3.038
					c-2.063,2.064-3.028,4.299-2.886,6.659v0.057c0.115,1.605,0.745,3.057,1.577,4.318c-2.608,4.825-1.835,8.216-0.354,10.433
					c-1.49,3.669-1.317,7.013,0.431,9.773c-0.297,0.564-0.545,1.146-0.755,1.749c-1.691,5.035,0.478,9.516,6.114,12.621
					c2.016,1.118,3.268,3.191,3.268,5.417v0.63h2.703v-0.63c0-3.21-1.786-6.201-4.662-7.787c-4.49-2.474-6.114-5.627-4.853-9.382
					c0.038-0.124,0.085-0.239,0.124-0.353c0.544,0.487,1.146,0.946,1.824,1.385c2.542,1.633,5.57,2.245,8.513,1.72
					c4.146-0.736,5.483-3.096,5.885-4.939c0.354-1.653-0.019-3.334-1.031-4.729C185.054,169.096,184.261,168.437,183.363,167.979z
					 M183.229,163.88c-0.239,1.71-2.093,2.551-5.531,2.542c-2.293-0.02-4.328-0.688-5.896-1.93c-0.114-0.086-0.22-0.182-0.324-0.277
					c0.478-0.611,1.137-1.366,1.948-2.054c2.284-1.949,4.701-2.599,7.194-1.911C182.331,160.718,183.449,162.275,183.229,163.88z
					 M179.093,148.966c1.729-0.114,3.314,0.631,4.854,2.312c0.869,0.946,0.134,2.293-0.22,2.828
					c-1.462,2.226-4.883,3.85-8.054,2.723c-0.526-0.191-1.07-0.487-1.663-0.927c-0.554-0.42-1.423-1.127-2.255-2.044
					C173.073,152.177,176.035,149.177,179.093,148.966z M170.332,156.285c0.726,0.735,1.462,1.328,2.054,1.777
					c0.373,0.277,0.735,0.516,1.089,0.726c-0.64,0.382-1.261,0.841-1.872,1.366c-0.697,0.602-1.29,1.223-1.777,1.796
					C169.186,160.345,169.357,158.444,170.332,156.285z M170.274,171.695c-0.602-1.49-0.631-3.172-0.096-5.035
					c1.194,0.926,2.57,1.605,4.089,2.016c-0.382,0.191-0.755,0.392-1.117,0.621C172.061,169.965,171.096,170.768,170.274,171.695z
					 M184.041,174.083c-0.334,1.519-1.538,2.445-3.706,2.837c-2.245,0.392-4.644-0.086-6.583-1.337
					c-0.745-0.478-1.385-0.984-1.911-1.538c0.736-0.955,1.653-1.787,2.724-2.436c2.054-1.271,4.165-1.806,6.229-1.605
					c1.08,0.105,2.054,0.659,2.675,1.509C184.022,172.277,184.232,173.195,184.041,174.083z"/>
				<g>
					<circle fill="#805DD8" cx="156.991" cy="223.831" r="2.03"/>
					<circle fill="#805DD8" cx="184.107" cy="236.982" r="2.03"/>
					<circle fill="#805DD8" cx="173.309" cy="246.901" r="2.03"/>
					<circle fill="#805DD8" cx="197.052" cy="213.296" r="2.03"/>
					<circle fill="#805DD8" cx="175.292" cy="230.096" r="2.03"/>
					<circle fill="#805DD8" cx="179.478" cy="211.619" r="2.03"/>
					<circle fill="#805DD8" cx="165.7" cy="240.027" r="2.03"/>
					<circle fill="#805DD8" cx="171.231" cy="202.021" r="2.03"/>
					<circle fill="#805DD8" cx="168.686" cy="209.096" r="0.955"/>
					<circle fill="#805DD8" cx="188.243" cy="212.341" r="0.956"/>
					<circle fill="#805DD8" cx="201.839" cy="225.861" r="0.956"/>
					<circle fill="#805DD8" cx="157.947" cy="233.718" r="0.956"/>
					<circle fill="#805DD8" cx="187.06" cy="228.7" r="0.955"/>
					<circle fill="#805DD8" cx="174.264" cy="239.012" r="0.955"/>
					<circle fill="#805DD8" cx="192.305" cy="242.057" r="0.956"/>
					<circle fill="#805DD8" cx="179.754" cy="202.021" r="0.956"/>
					<circle fill="#805DD8" cx="164.896" cy="218.489" r="3.13"/>
					<circle fill="#805DD8" cx="197.641" cy="233.056" r="3.13"/>
					<circle fill="#805DD8" cx="187.059" cy="246.901" r="3.13"/>
				</g>
			</g>
			<g>
				<path fill="#FFAC92" d="M152.533,156.657c0,3.821-3.096,6.917-6.917,6.917s-6.917-3.095-6.917-6.917
					c0-1.022,0.229-2.006,0.631-2.876c1.471-0.401,3.458-0.095,4.385,0.554c1.252,0.87,1.71,1.366,3.315,1.28
					c1.614-0.096,3.124-0.898,4.738-1.013c0.153-0.01,0.306-0.01,0.449,0C152.428,155.252,152.533,155.94,152.533,156.657z"/>
			</g>
			<g>
				<path fill="#00D4C9" d="M152.533,178.691c0,3.821-3.096,6.917-6.917,6.917s-6.917-3.096-6.917-6.917
					c0-1.022,0.229-2.006,0.631-2.875c1.471-0.401,3.458-0.096,4.385,0.554c1.252,0.87,1.71,1.366,3.315,1.28
					c1.614-0.095,3.124-0.898,4.738-1.013c0.153-0.009,0.306-0.009,0.449,0C152.428,177.287,152.533,177.975,152.533,178.691z"/>
			</g>
			<g>
				<path fill="#E05731" d="M152.533,200.522c0,3.821-3.096,6.917-6.917,6.917s-6.917-3.096-6.917-6.917
					c0-1.022,0.229-2.006,0.631-2.875c1.471-0.401,3.458-0.096,4.385,0.554c1.252,0.869,1.71,1.366,3.315,1.28
					c1.614-0.095,3.124-0.898,4.738-1.013c0.153-0.009,0.306-0.009,0.449,0C152.428,199.118,152.533,199.806,152.533,200.522z"/>
			</g>
		</g>
		<g>
			<polygon fill="#002039" points="136.712,209.847 136.712,138.776 135.93,138.776 135.93,209.847 134.741,209.847 134.741,274.26 
				137.899,274.26 137.899,209.847 			"/>
			<rect x="135.93" y="144.057" fill="#002039" width="12.469" height="0.72"/>
			<rect x="135.93" y="188.868" fill="#002039" width="12.469" height="0.72"/>
			<rect x="135.93" y="213.049" fill="#002039" width="12.469" height="0.72"/>
		</g>
	</g>
	<g>
		<path fill="#00AF9F" d="M334.641,246.663v-3.258h-59.499v3.258h1.504v24.453h-1.504v3.258h59.499v-3.258h-1.609v-24.453H334.641z
			 M329.354,271.116h-49.03v-24.453h49.03V271.116z"/>
		<g>
			<g>
				<path opacity="0.5" fill="#FFFFFF" d="M297.39,246.663v18.162c0,1.337-1.079,2.427-2.417,2.427c-1.337,0-2.417-1.09-2.417-2.427
					v-18.162H297.39z"/>
				<g>
					<g opacity="0.9">
						<path fill="#E05731" d="M297.39,252.395v12.43c0,1.337-1.079,2.427-2.417,2.427c-1.337,0-2.417-1.09-2.417-2.427v-12.611
							c0.449-0.22,1.108-0.496,1.558-0.382c0.755,0.191,1.185,0.755,2.044,0.765C296.425,252.596,296.902,252.471,297.39,252.395z"
							/>
					</g>
					<circle fill="#E05731" cx="294.251" cy="253.935" r="0.671"/>
					<circle fill="#E05731" cx="295.592" cy="258.019" r="0.67"/>
					<circle fill="#E05731" cx="294.302" cy="263.808" r="0.67"/>
				</g>
				<path opacity="0.5" fill="#FFFFFF" d="M297.567,241.205h-5.19c-0.607,0-1.101,0.493-1.101,1.1l0,0c0,0.607,0.493,1.1,1.101,1.1
					h5.19c0.608,0,1.101-0.493,1.101-1.1l0,0C298.668,241.697,298.176,241.205,297.567,241.205z"/>
			</g>
		</g>
		<g>
			<g>
				<path opacity="0.5" fill="#FFFFFF" d="M287.97,246.663v18.162c0,1.337-1.079,2.427-2.417,2.427c-1.337,0-2.417-1.09-2.417-2.427
					v-18.162H287.97z"/>
				<g>
					<g opacity="0.5">
						<path fill="#00D4C9" d="M287.97,255.195v9.63c0,1.337-1.079,2.427-2.417,2.427c-1.337,0-2.417-1.09-2.417-2.427v-9.812
							c0.449-0.22,1.108-0.497,1.558-0.383c0.755,0.191,1.185,0.755,2.044,0.765C287.005,255.395,287.482,255.271,287.97,255.195z"
							/>
					</g>
					<g>
						<circle fill="#00AF9F" cx="284.826" cy="260.669" r="0.671"/>
						<circle fill="#00AF9F" cx="286.538" cy="256.957" r="0.671"/>
						<circle fill="#00AF9F" cx="285.867" cy="264.033" r="0.67"/>
					</g>
				</g>
				<path opacity="0.5" fill="#FFFFFF" d="M288.144,241.205h-5.191c-0.607,0-1.1,0.493-1.1,1.1l0,0c0,0.607,0.492,1.1,1.1,1.1h5.191
					c0.607,0,1.101-0.493,1.101-1.1l0,0C289.244,241.697,288.751,241.205,288.144,241.205z"/>
			</g>
		</g>
		<g>
			<g>
				<path opacity="0.5" fill="#FFFFFF" d="M316.378,246.663v18.162c0,1.337-1.079,2.427-2.417,2.427s-2.417-1.09-2.417-2.427
					v-18.162H316.378z"/>
				<g>
					<g opacity="0.9">
						<path fill="#E05731" d="M316.378,252.395v12.43c0,1.337-1.079,2.427-2.417,2.427s-2.417-1.09-2.417-2.427v-12.611
							c0.449-0.22,1.108-0.496,1.557-0.382c0.755,0.191,1.186,0.755,2.045,0.765C315.413,252.596,315.891,252.471,316.378,252.395z"
							/>
					</g>
					<circle fill="#E05731" cx="313.239" cy="253.935" r="0.67"/>
					<circle fill="#E05731" cx="314.58" cy="258.019" r="0.671"/>
					<circle fill="#E05731" cx="313.29" cy="263.808" r="0.671"/>
				</g>
				<path opacity="0.5" fill="#FFFFFF" d="M316.556,241.205h-5.19c-0.607,0-1.101,0.493-1.101,1.1l0,0c0,0.607,0.493,1.1,1.101,1.1
					h5.19c0.607,0,1.101-0.493,1.101-1.1l0,0C317.656,241.697,317.163,241.205,316.556,241.205z"/>
			</g>
		</g>
		<g>
			<g>
				<path opacity="0.5" fill="#FFFFFF" d="M306.958,246.663v18.162c0,1.337-1.08,2.427-2.417,2.427c-1.338,0-2.417-1.09-2.417-2.427
					v-18.162H306.958z"/>
				<g>
					<g opacity="0.5">
						<path fill="#00D4C9" d="M306.958,255.195v9.63c0,1.337-1.08,2.427-2.417,2.427c-1.338,0-2.417-1.09-2.417-2.427v-9.812
							c0.449-0.22,1.108-0.497,1.557-0.383c0.755,0.191,1.186,0.755,2.045,0.765C305.993,255.395,306.471,255.271,306.958,255.195z"
							/>
					</g>
					<g>
						<circle fill="#00AF9F" cx="303.814" cy="260.669" r="0.671"/>
						<circle fill="#00AF9F" cx="305.526" cy="256.957" r="0.671"/>
						<circle fill="#00AF9F" cx="304.855" cy="264.033" r="0.67"/>
					</g>
				</g>
				<path opacity="0.5" fill="#FFFFFF" d="M307.132,241.205h-5.191c-0.607,0-1.1,0.493-1.1,1.1l0,0c0,0.607,0.492,1.1,1.1,1.1h5.191
					c0.607,0,1.1-0.493,1.1-1.1l0,0C308.231,241.697,307.739,241.205,307.132,241.205z"/>
			</g>
		</g>
		<g>
			<g>
				<path opacity="0.5" fill="#FFFFFF" d="M325.826,246.663v18.162c0,1.337-1.079,2.427-2.417,2.427
					c-1.337,0-2.417-1.09-2.417-2.427v-18.162H325.826z"/>
				<g>
					<g opacity="0.5">
						<path fill="#00D4C9" d="M325.826,255.195v9.63c0,1.337-1.079,2.427-2.417,2.427c-1.337,0-2.417-1.09-2.417-2.427v-9.812
							c0.449-0.22,1.108-0.497,1.558-0.383c0.755,0.191,1.185,0.755,2.044,0.765C324.861,255.395,325.34,255.271,325.826,255.195z"
							/>
					</g>
					<g>
						<circle fill="#00AF9F" cx="322.683" cy="260.669" r="0.67"/>
						<circle fill="#00AF9F" cx="324.394" cy="256.957" r="0.671"/>
						<circle fill="#00AF9F" cx="323.724" cy="264.033" r="0.671"/>
					</g>
				</g>
				<path opacity="0.5" fill="#FFFFFF" d="M326,241.205h-5.19c-0.608,0-1.101,0.493-1.101,1.1l0,0c0,0.607,0.492,1.1,1.101,1.1H326
					c0.607,0,1.101-0.493,1.101-1.1l0,0C327.101,241.697,326.607,241.205,326,241.205z"/>
			</g>
		</g>
	</g>
	<g>
		<path opacity="0.8" fill="#FFFFFF" d="M369.438,268.992l-15.359-21.09l0.703-21.944l0.89,0.029c0.856,0.027,1.572-0.644,1.6-1.5
			c0.027-0.855-0.645-1.571-1.5-1.599l-9.111-0.292c-0.855-0.027-1.571,0.644-1.599,1.5c-0.027,0.856,0.644,1.572,1.5,1.599
			l0.889,0.028l-0.713,22.251l-15.597,20.615c-1.812,2.395-0.125,5.833,2.878,5.865l32.424,0.349
			C369.451,274.835,371.21,271.424,369.438,268.992z"/>
		<g>
			<path fill="#E05731" d="M347.791,231.336c0,0,0.802,1.125,2.802,0.208l0.001,0c1.4-1.14,3.491-0.1,3.427,1.705l-0.532,14.968
				l14.592,21.128c0.622,0.901,0.663,2.081,0.104,3.023l0,0c-0.508,0.854-1.431,1.377-2.425,1.372l-30.538-0.156
				c-0.994-0.006-1.912-0.537-2.41-1.398l-0.52-0.896c-0.563-0.973-0.491-2.188,0.185-3.088l15.081-20.073L347.791,231.336z"/>
			<circle fill="#E05731" cx="342.684" cy="266.741" r="3.121"/>
			<circle fill="#E05731" cx="362.617" cy="269.334" r="3.12"/>
			<circle fill="#E05731" cx="344.864" cy="257.233" r="1.442"/>
			<circle fill="#E05731" cx="351.501" cy="259.2" r="0.647"/>
			<circle fill="#E05731" cx="349.468" cy="249.643" r="0.647"/>
			<circle fill="#E05731" cx="336" cy="269.383" r="0.647"/>
			<circle fill="#E05731" cx="349.805" cy="234.831" r="0.647"/>
			<circle fill="#E05731" cx="361.079" cy="262.623" r="0.647"/>
			<circle fill="#E05731" cx="350.625" cy="268.841" r="1.376"/>
			<circle fill="#E05731" cx="351.162" cy="238.404" r="1.442"/>
			<circle fill="#E05731" cx="351.639" cy="253.682" r="1.442"/>
			<circle fill="#E05731" cx="356.302" cy="263.252" r="1.442"/>
			<circle fill="#E05731" cx="350.308" cy="243.593" r="1.929"/>
		</g>
	</g>
	<g>
		<path opacity="0.84" fill="#002039" d="M374.201,282.721H125.799c-2.336,0-4.23-1.895-4.23-4.23l0,0c0-2.336,1.895-4.23,4.23-4.23
			h248.402c2.336,0,4.23,1.895,4.23,4.23l0,0C378.432,280.827,376.537,282.721,374.201,282.721z"/>
		<path fill="#002039" d="M363.042,290.911H136.958c-4.673,0-8.46-3.788-8.46-8.461l0,0h243.004l0,0
			C371.502,287.123,367.715,290.911,363.042,290.911z"/>
	</g>
</g>
</svg>
